<svg width="24" height="24" viewBox="0 0 24 24" fill="none" xmlns="http://www.w3.org/2000/svg">
<rect width="24" height="24" rx="4" fill="white"/>
<path d="M5 20.625L8.18718 4.25C10.1771 4.08333 11.8128 4 13.0944 4C14.3761 4 15.43 4.05833 16.2563 4.175C17.0826 4.275 17.774 4.46667 18.3305 4.75C19.4435 5.28333 20 6.28333 20 7.75C20 8.6 19.629 9.38333 18.887 10.1C18.1956 10.75 17.4705 11.15 16.7116 11.3C17.5211 11.4333 18.2125 11.8 18.7858 12.4C19.3929 13.0333 19.6965 13.8417 19.6965 14.825C19.6965 16.725 18.9798 18.2333 17.5464 19.35C16.113 20.45 13.9882 21 11.172 21C9.23271 21 7.17538 20.875 5 20.625ZM10.6155 19.175C10.7673 19.1917 10.86 19.2 10.8938 19.2H11.1214C12.5042 19.2 13.4907 18.75 14.0809 17.85C14.5194 17.15 14.7386 16.1583 14.7386 14.875C14.7386 14.1917 14.511 13.6667 14.0556 13.3C13.6172 12.9333 12.8921 12.7333 11.8803 12.7L10.6155 19.175ZM15.7251 7.775C15.7251 6.39167 15.0506 5.7 13.7015 5.7H13.4739C13.4064 5.7 13.3221 5.70833 13.2209 5.725L12.2091 11H12.4621C14.6374 10.95 15.7251 9.875 15.7251 7.775Z" fill="#121212"/>
</svg>
