<svg width="120" height="120" viewBox="0 0 120 120" fill="none" xmlns="http://www.w3.org/2000/svg">
<rect width="120" height="120" fill="black"/>
<path d="M84.9046 60.5632L84.8705 60.8434H85.1528H93.2868H93.5368V60.5934C93.5368 58.5768 93.5865 56.4826 93.6423 54.4369H93.7415H96.596C96.7196 54.4369 96.7727 54.455 96.7938 54.4675L96.7944 54.4678C96.8011 54.4717 96.8147 54.4797 96.8269 54.521C96.8504 55.303 96.8255 57.2567 96.7757 58.5852C96.7001 59.6047 96.6246 60.5483 96.524 61.5659L96.4969 61.8405H96.7728H104.755H105.001L105.005 61.5945C105.056 58.3732 104.98 54.9284 104.904 51.5391C104.828 48.054 104.854 44.5191 104.98 41.009L104.989 40.75H104.73H96.9244H96.6701L96.6744 41.0042C96.682 41.4573 96.7032 42.1468 96.727 42.9252C96.7821 44.7261 96.8518 47.0029 96.8031 47.9282C96.7956 47.9418 96.7831 47.9549 96.7623 47.9673C96.7296 47.9866 96.6747 48.0041 96.596 48.0041H93.8656C93.9626 45.8477 94.0576 43.6521 94.0925 41.5526L94.0967 41.2984H93.8425H76.0336H75.7836V41.5484V47.0824V47.361L76.0606 47.331C78.3487 47.0829 80.3098 47.0084 82.2478 47.0084H85.2538C85.4942 47.0084 85.6463 47.1116 85.7151 47.2077C85.8615 49.718 85.8109 52.3764 85.6362 55.0384C85.5355 56.0164 85.3875 57.0549 85.2363 58.1161C85.1211 58.9243 85.004 59.7456 84.9046 60.5632ZM75.531 58.0508V58.2764L75.7555 58.2995C77.3676 58.4649 79.0338 58.2931 80.5062 57.8997C81.9754 57.5071 83.2705 56.8888 84.1291 56.1459L84.1955 56.0885L84.2114 56.0022L85.4492 49.2966L85.5429 48.7889L85.0865 49.0302C83.6968 49.7648 82.2605 50.2536 80.5238 50.4739L80.5238 50.4739L80.5198 50.4745C79.1569 50.6701 77.5892 50.671 75.8154 50.4245L75.531 50.3849V50.6721V58.0508Z" fill="white" stroke="black" stroke-width="0.5"/>
<path d="M43.7774 55.5075L43.5257 55.5058V55.7575V60.8926V61.1426H43.7757H73.9877H74.2377V60.8926V55.7076V55.4496L73.9798 55.4577C69.2578 55.6072 64.461 55.7069 59.589 55.7069H55.421C53.315 55.7069 51.3662 55.6633 49.4624 55.6166C49.2735 55.612 49.0851 55.6073 48.897 55.6026C47.1896 55.5603 45.5092 55.5187 43.7774 55.5075ZM43.4822 54.1389L43.2718 54.5118H43.7H54.8147H55.0082L55.0567 54.3245C55.6066 52.2035 56.3559 50.0812 57.2304 48.0806C57.4387 47.801 57.679 47.6418 57.9577 47.5569H59.8758C60.1237 47.6454 60.3726 47.8064 60.5284 48.0459C60.9778 49.1313 61.4029 50.2666 61.8036 51.4034L61.8035 51.4034L61.8059 51.4098C62.1542 52.3182 62.4544 53.3787 62.6804 54.3201L62.7264 54.5118H62.9235H74.0635H74.4885L74.282 54.1403C73.4196 52.5883 72.3806 50.9129 71.3422 49.3632C70.4617 47.9977 69.635 46.5878 69.0103 45.2563L68.9429 45.1125H68.784H60.0514C60.0514 45.1124 60.0515 45.1123 60.0515 45.1123C61.3715 43.9596 62.7904 42.8307 64.3084 41.7257L64.9294 41.2736H64.1613H50.7983H50.6323L50.5679 41.4265C49.6398 43.6295 48.4342 45.8115 47.1465 48.054C46.6519 48.8998 46.1046 49.7884 45.5509 50.6874C45.4703 50.8181 45.3896 50.9491 45.309 51.0802C44.6744 52.1115 44.0406 53.1496 43.4822 54.1389Z" fill="white" stroke="black" stroke-width="0.5"/>
<path d="M16.1203 54.6394L16.1726 54.6356L25.7465 53.9376L25.871 54.4132C25.3702 54.6485 25.049 54.9222 24.8556 55.2016C24.6646 55.4778 24.5897 55.7719 24.5998 56.0688C24.6303 56.5168 24.9505 56.9092 25.6668 57.2024C26.385 57.4965 27.447 57.6637 28.8224 57.6761C29.8752 57.6761 30.9785 57.5763 31.6481 57.3646C31.9933 57.2469 32.2427 57.1057 32.4015 56.9618C32.5595 56.8187 32.613 56.688 32.613 56.58C32.613 56.4207 32.5456 56.2805 32.377 56.1389C32.2005 55.9908 31.9257 55.8535 31.5448 55.7199C30.824 55.4833 29.8459 55.3844 28.9249 55.3842C27.7503 55.4091 26.1622 55.6325 25.1075 56.2476L24.8102 55.8496C25.3989 55.2951 26.1643 54.9074 26.9054 54.6046C27.5592 54.3211 28.3105 54.1176 29.1288 53.9661C30.4583 53.7139 31.9389 53.5879 33.1408 53.5879C33.9699 53.5879 34.7185 53.6903 35.4562 53.8158L35.4605 53.8165L35.4605 53.8166C36.5295 54.0175 37.6725 54.2933 38.7355 54.5681L38.7474 54.5712L38.7474 54.5714C39.7138 54.8726 40.6362 55.2824 41.2328 55.8144C41.8632 56.3041 42.2321 56.9702 42.2321 57.7766C42.2321 58.6357 41.7793 59.3613 41.0467 59.9528C40.3171 60.5419 39.2918 61.0148 38.089 61.381L38.0867 61.3817C35.6796 62.0892 32.3183 62.4139 29.0725 62.389L16.1203 54.6394ZM16.1203 54.6394L16.074 54.6639C15.6459 54.8902 15.3619 55.3206 15.2014 55.7586C15.0422 56.1931 14.9893 56.6755 15.0586 57.0618L16.1203 54.6394ZM21.2395 50.4045L20.8908 50.2079C20.7908 48.9567 20.7604 47.59 20.7604 46.3097C20.7604 46.2363 20.7812 46.2051 20.7987 46.1891C20.8196 46.1701 20.8769 46.1359 21.0156 46.1359H23.4407C23.5578 46.1359 23.6332 46.1518 23.6719 46.1683L23.6959 46.6893C23.6958 46.9539 23.6895 47.6818 23.6707 48.4065C23.6613 48.7716 23.6487 49.1343 23.6323 49.4359C23.6163 49.7311 23.5973 49.9509 23.5772 50.0601C23.5126 50.2463 23.3589 50.4027 23.1301 50.5169C22.8957 50.6339 22.6004 50.6963 22.3039 50.6963C22.0434 50.6963 21.5553 50.5825 21.2395 50.4045ZM21.3078 52.9763C21.153 52.3905 21.0396 51.6895 20.9576 50.9256L21.1584 51.5021L21.1861 51.5815L21.256 51.628C23.3843 53.0451 24.9752 53.5412 26.8577 53.4896L26.8579 53.4896C27.7619 53.4641 28.6343 53.3175 29.3594 53.0155C30.0318 52.7355 30.5927 52.3148 30.9198 51.7198H33.2182C33.3812 52.0387 33.4826 52.3388 33.5306 52.5731C33.558 52.707 33.5662 52.8107 33.5626 52.8798C33.5616 52.8983 33.5599 52.912 33.5582 52.9217L33.0495 53.3401H33.5745C33.6116 53.3517 33.6517 53.3588 33.6934 53.3588C33.7264 53.3588 33.7659 53.3541 33.8064 53.3401H41.6538H41.9038V53.0901V49.5005H41.9039L41.9036 49.4913C41.8734 48.6676 41.8153 47.847 41.7581 47.0384C41.7431 46.8263 41.7281 46.6151 41.7137 46.4048C41.6444 45.3906 41.5882 44.3965 41.6006 43.4233C41.612 43.0302 41.639 42.6472 41.6654 42.2735C41.6678 42.2391 41.6702 42.2047 41.6726 42.1704C41.701 41.7662 41.7269 41.3715 41.7269 41V40.75H41.4769H33.6713H33.334L33.4321 41.0727C33.469 41.1941 33.4941 41.2858 33.5044 41.4021C33.5147 41.5196 33.5106 41.6731 33.4747 41.9097L33.4734 41.9179L33.4727 41.9262C33.4618 42.0555 33.4088 42.3448 33.3358 42.606C33.2994 42.7364 33.2611 42.8482 33.2254 42.9247C33.2221 42.9316 33.219 42.9379 33.2162 42.9437H31.3207C31.3227 42.7235 31.327 42.4967 31.3314 42.2624L31.332 42.2262C31.3383 41.8898 31.3447 41.5386 31.3447 41.1745V40.9245H31.0947H23.9459H23.6959V41.1745V41.9722C23.6959 42.5487 23.6958 43.642 23.6739 44.2083C23.659 44.2245 23.6392 44.2423 23.6154 44.2586C23.5668 44.2918 23.5077 44.3147 23.4407 44.3147H21.0156C20.918 44.3147 20.8755 44.2979 20.8614 44.2903C20.8615 43.1816 20.9362 42.2483 21.1106 41.2161L21.1598 40.9245H20.8641H13.0332H12.79L12.7833 41.1676C12.7326 42.9921 12.7326 44.744 12.834 46.6966L12.834 46.6966L12.8343 46.701C12.9851 48.8584 12.985 50.9654 12.8344 53.022L12.8147 53.2902H13.0837H21.0661H21.3908L21.3078 52.9763ZM33.611 52.8819L33.6033 52.9152L33.5978 52.9388L33.5719 52.9126C33.5748 52.9094 33.5781 52.9061 33.5818 52.9027C33.584 52.9008 33.5862 52.8989 33.5885 52.8972C33.596 52.8912 33.6036 52.8862 33.611 52.8819ZM33.1894 42.9893C33.186 42.9935 33.1861 42.9925 33.1898 42.9887L33.1894 42.9893ZM33.5122 47.9055C33.4593 48.1514 33.3733 48.3798 33.2489 48.5525H31.2444C31.246 48.2684 31.25 47.9648 31.2543 47.6357C31.2549 47.5849 31.2556 47.5335 31.2563 47.4814C31.2617 47.0596 31.2672 46.5977 31.2686 46.086H33.2053C33.2861 46.1906 33.3653 46.34 33.4308 46.5155C33.5119 46.7329 33.5624 46.9639 33.5733 47.1472C33.5847 47.3387 33.5733 47.6212 33.5122 47.9055Z" fill="white" stroke="black" stroke-width="0.5"/>
<path d="M106.129 78.1329L106.27 78.0482L106.248 77.8848L105.878 75.158L105.823 74.7576L105.489 74.9849C104.919 75.3733 104.406 75.551 103.947 75.551C103.608 75.551 103.36 75.4558 103.179 75.2859C103.025 75.1326 102.928 74.924 102.906 74.6397C103.403 74.3111 103.82 73.9079 104.152 73.4303L104.152 73.4303L104.154 73.4283C104.523 72.8872 104.707 72.274 104.707 71.5964C104.707 70.4668 104.364 69.5483 103.658 68.8724C102.949 68.1844 101.952 67.8579 100.705 67.8579H96.2749H96.0249V68.1079V78.7563V79.0063H96.2749H99.9181H100.168V78.7563V76.6545C100.501 77.2355 100.882 77.7161 101.313 78.0917L101.313 78.0917L101.316 78.0945C101.987 78.6585 102.748 78.9454 103.592 78.9454C104.392 78.9454 105.239 78.6661 106.129 78.1329ZM100.983 71.3077L100.983 71.3078L100.99 71.3134C101.092 71.4021 101.15 71.5222 101.15 71.7031C101.15 71.8955 101.091 72.0278 100.986 72.126C100.877 72.2189 100.724 72.2757 100.505 72.2757H99.813V71.1457H100.505C100.722 71.1457 100.873 71.2061 100.983 71.3077Z" fill="white" stroke="black" stroke-width="0.5"/>
<path d="M94.5735 79.0216H94.8235V78.7716V75.6791V75.4291H94.5735H91.736V75.0608H93.8788H94.1288V74.8108V72.1753V71.9253H93.8788H91.736V71.4961H94.5735H94.8235V71.2461V68.1079V67.8579H94.5735H87.8892H87.6392V68.1079V78.7716V79.0216H87.8892H94.5735Z" fill="white" stroke="black" stroke-width="0.5"/>
<path d="M86.2432 75.1643L86.1575 74.8035L85.8552 75.0183C85.3631 75.3679 84.9453 75.5205 84.5952 75.5205C84.2639 75.5205 84.0039 75.4028 83.7955 75.1643C83.5623 74.8973 83.3889 74.5886 83.2754 74.2355C83.1763 73.888 83.1256 73.5957 83.1174 73.3555L86.2291 68.2378L86.46 67.8579H86.0155H82.434H82.2897L82.2176 67.9829L80.8624 70.3287V68.1079V67.8579H80.6124H77.031H76.781V68.1079V78.7716V79.0216H77.031H80.6124H80.8624V78.7716V76.6385C81.1435 77.1524 81.4733 77.6068 81.8526 78.0005L81.8526 78.0005L81.8541 78.002C82.4981 78.6594 83.288 78.9911 84.2093 78.9911C84.9997 78.9911 85.8569 78.706 86.7754 78.1643L86.9343 78.0706L86.8916 77.8911L86.2432 75.1643Z" fill="white" stroke="black" stroke-width="0.5"/>
<path d="M67.545 77.5319L67.4619 77.729L67.6438 77.8416C68.2659 78.2266 68.9396 78.5536 69.6642 78.8231C70.3956 79.095 71.084 79.2349 71.7273 79.2349C72.5498 79.2349 73.2869 79.0872 73.9328 78.7847C74.5783 78.4824 75.0845 78.0515 75.4416 77.4905C75.8099 76.9281 75.991 76.2808 75.991 75.5572C75.991 74.8379 75.822 74.2204 75.4667 73.7221C75.1302 73.2404 74.7337 72.868 74.2753 72.6135C73.8501 72.362 73.3296 72.1136 72.7161 71.8673C72.3225 71.7079 72.043 71.5818 71.8705 71.488C71.7312 71.3974 71.7303 71.3432 71.7303 71.3375C71.7303 71.2481 71.7612 71.1864 71.8405 71.1305C71.9301 71.0673 72.0651 71.0238 72.2676 71.0238C72.5994 71.0238 72.969 71.1012 73.379 71.265C73.7964 71.4317 74.1827 71.6322 74.5384 71.8663L74.7843 72.028L74.9042 71.7592L76.0311 69.2304L76.1183 69.0347L75.9383 68.9185C75.3858 68.562 74.7717 68.2646 74.0972 68.0252C73.4156 67.7732 72.7538 67.6447 72.1132 67.6447C71.3006 67.6447 70.5732 67.7925 69.9371 68.0955C69.3 68.399 68.7993 68.8365 68.4432 69.4076L68.4432 69.4076L68.4424 69.4088C68.0963 69.9707 67.9268 70.6164 67.9268 71.3375C67.9268 72.0561 68.0901 72.6765 68.4327 73.1836L68.4326 73.1837L68.4364 73.1889C68.7727 73.66 69.1628 74.0308 69.6085 74.2947C70.0346 74.547 70.5514 74.791 71.1563 75.0278C71.5545 75.1891 71.8244 75.319 71.9787 75.4176L71.9857 75.4221L71.9931 75.4261C72.0677 75.467 72.1069 75.5022 72.1258 75.526C72.1412 75.5455 72.1411 75.5542 72.1411 75.557L72.1411 75.5572C72.1411 75.6474 72.1089 75.7118 72.0129 75.771L72.0128 75.7709L72.0067 75.7749C71.9076 75.8401 71.7507 75.8861 71.5112 75.8861C71.3116 75.8861 70.9832 75.7951 70.5045 75.574C70.0301 75.3549 69.5337 75.0901 69.0155 74.7792L68.7685 74.631L68.6565 74.8965L67.545 77.5319Z" fill="white" stroke="black" stroke-width="0.5"/>
<path d="M66.7096 77.6675L66.7146 77.6592L66.719 77.6506C66.7706 77.5486 66.7923 77.4375 66.7923 77.3243V72.2515V72.0015H66.5423H61.8185H61.5685V72.2515V74.9631V75.2131H61.8185H63.282V75.571C63.1259 75.671 62.8939 75.7338 62.5595 75.7338C61.8877 75.7338 61.3707 75.5218 60.982 75.1121C60.5913 74.6901 60.3858 74.1258 60.3858 73.394C60.3858 72.6815 60.5865 72.1516 60.9618 71.7724C61.3491 71.3813 61.8724 71.1761 62.5595 71.1761C63.2427 71.1761 63.7818 71.2559 64.1868 71.4046L64.4302 71.4939L64.5106 71.2475L65.406 68.5054L65.4739 68.2974L65.2768 68.2025C64.8366 67.9906 64.3655 67.8322 63.8643 67.7268C63.3749 67.6115 62.8987 67.5532 62.436 67.5532C61.2878 67.5532 60.2574 67.8001 59.3516 68.3001C58.4562 68.7899 57.7585 69.4838 57.2623 70.3777C56.7656 71.2624 56.5205 72.2701 56.5205 73.394C56.5205 74.5571 56.765 75.5903 57.262 76.4859L57.2626 76.487C57.7594 77.3716 58.458 78.0555 59.3541 78.535L59.3552 78.5356C60.2603 79.0141 61.2894 79.2501 62.436 79.2501C63.2212 79.2501 63.9717 79.1401 64.6865 78.919C65.4041 78.697 66.0089 78.3714 66.4931 77.937L66.528 77.9057L66.5448 77.8725C66.5481 77.8685 66.554 77.862 66.5635 77.8527L66.4075 77.6946L66.5635 77.8527C66.6196 77.7972 66.6683 77.7353 66.7096 77.6675Z" fill="white" stroke="black" stroke-width="0.5"/>
<path d="M49.8724 67.9884L49.8014 67.8579H49.6528H46.0405H45.7905V68.1079V78.7716V79.0216H46.0405H49.6528H49.9028V78.7716V75.6408L51.6716 78.8911L51.7427 79.0216H51.8912H55.38H55.63V78.7716V68.1079V67.8579H55.38H51.8912H51.6412V68.1079V71.2386L49.8724 67.9884Z" fill="white" stroke="black" stroke-width="0.5"/>
<path d="M44.9029 68.047V67.797H44.6529H40.6547H40.4047V68.047V73.6073C40.4047 74.142 40.305 74.502 40.1434 74.7251C40 74.9233 39.7507 75.0483 39.3271 75.0483H39.2962H39.2653C38.8292 75.0483 38.576 74.922 38.4336 74.7251C38.272 74.502 38.1723 74.142 38.1723 73.6073V68.047V67.797H37.9223H33.9241H33.6741V68.047V73.8206C33.6741 75.2878 34.0061 76.4679 34.7022 77.3292L34.7021 77.3292L34.7056 77.3333C35.1999 77.9187 35.8546 78.3627 36.66 78.67L36.6599 78.67L36.6637 78.6714C37.4739 78.966 38.3502 79.1225 39.2907 79.1434L39.2907 79.1436L39.3018 79.1434C40.2422 79.1225 41.1138 78.966 41.9143 78.671L41.9144 78.671L41.917 78.67C42.7224 78.3627 43.3771 77.9187 43.8714 77.3333L43.8714 77.3334L43.8748 77.3292C44.5709 76.4679 44.9029 75.2878 44.9029 73.8206V68.047Z" fill="white" stroke="black" stroke-width="0.5"/>
<path d="M27.6492 70.0074L26.3319 67.9721L26.258 67.8579H26.122H22.062H21.6073L21.8509 68.2419L25.6404 74.2131V78.7716V79.0216H25.8904H29.3947H29.6447V78.7716V74.2131L33.4342 68.2419L33.6779 67.8579H33.2231H29.1631H29.0264L28.9526 67.973L27.6492 70.0074Z" fill="white" stroke="black" stroke-width="0.5"/>
<path d="M13.4429 78.7716V79.0216H13.6929H18.8952C19.588 79.0216 20.2147 78.8825 20.7692 78.5979C21.3221 78.3142 21.7585 77.918 22.0719 77.4099C22.3862 76.9004 22.5414 76.3262 22.5414 75.6943C22.5414 75.0226 22.3761 74.4405 22.0308 73.9634C21.812 73.6611 21.5435 73.4209 21.228 73.2432C21.4632 73.0961 21.6621 72.8962 21.8227 72.6452L21.8227 72.6453L21.8243 72.6428C22.1005 72.1998 22.2326 71.6746 22.2326 71.0785C22.2326 70.1218 21.9045 69.335 21.2385 68.7442C20.5741 68.1445 19.6855 67.8579 18.6019 67.8579H13.6929H13.4429V68.1079V78.7716ZM18.5715 74.9185L18.5778 74.9243L18.5844 74.9297C18.7002 75.0225 18.7378 75.1122 18.7378 75.2069C18.7378 75.374 18.6823 75.4993 18.5712 75.6021C18.4645 75.7002 18.3404 75.749 18.1851 75.749H17.1384V74.7713H18.1851C18.3405 74.7713 18.4647 74.8202 18.5715 74.9185ZM17.8764 72.0015H17.1384V71.1305H17.8764C18.078 71.1305 18.2073 71.1833 18.2941 71.2628C18.3872 71.3482 18.4291 71.4441 18.4291 71.566C18.4291 71.7002 18.3854 71.799 18.2978 71.8809C18.2112 71.9525 18.0798 72.0015 17.8764 72.0015Z" fill="white" stroke="black" stroke-width="0.5"/>
</svg>
