<svg width="16" height="16" viewBox="0 0 16 16" fill="none" xmlns="http://www.w3.org/2000/svg">
<path fill-rule="evenodd" clip-rule="evenodd" d="M9.20999 8L12.9773 4.23266C13.0516 4.15838 13.1106 4.07018 13.1509 3.97311C13.1911 3.87603 13.2118 3.77198 13.2119 3.6669C13.2119 3.56181 13.1912 3.45775 13.151 3.36066C13.1109 3.26356 13.0519 3.17533 12.9777 3.101C12.9034 3.02667 12.8152 2.9677 12.7181 2.92746C12.621 2.88721 12.517 2.86649 12.4119 2.86646C12.3068 2.86642 12.2027 2.88709 12.1056 2.92728C12.0085 2.96746 11.9203 3.02638 11.846 3.10066L8.07865 6.86866L4.31065 3.10066C4.15889 2.95891 3.95799 2.88167 3.75036 2.88525C3.54272 2.88882 3.3446 2.97292 3.1978 3.1198C3.05101 3.26669 2.96702 3.46486 2.96357 3.6725C2.96012 3.88013 3.03748 4.08099 3.17932 4.23266L6.94732 8L3.17932 11.7673C3.06796 11.8795 2.99224 12.022 2.96168 12.1771C2.93113 12.3321 2.9471 12.4927 3.0076 12.6387C3.06809 12.7847 3.1704 12.9096 3.30167 12.9976C3.43293 13.0856 3.58729 13.1328 3.74532 13.1333C3.94999 13.1333 4.15465 13.0553 4.31065 12.8993L8.07865 9.13133L11.846 12.8993C11.9202 12.9738 12.0083 13.0328 12.1054 13.0731C12.2025 13.1134 12.3066 13.1342 12.4117 13.1342C12.5168 13.1342 12.6208 13.1134 12.7179 13.0731C12.815 13.0328 12.9031 12.9738 12.9773 12.8993C13.0517 12.825 13.1107 12.7368 13.151 12.6397C13.1912 12.5426 13.2119 12.4385 13.2119 12.3333C13.2119 12.2282 13.1912 12.1241 13.151 12.027C13.1107 11.9299 13.0517 11.8416 12.9773 11.7673L9.20999 8Z" fill="#8B95A1"/>
</svg>
