<svg width="16" height="16" viewBox="0 0 16 16" fill="none" xmlns="http://www.w3.org/2000/svg">
<path fill-rule="evenodd" clip-rule="evenodd" d="M13.9773 7.2H4.62L8.254 3.566C8.32928 3.49193 8.38915 3.4037 8.43016 3.30638C8.47117 3.20906 8.4925 3.10459 8.49293 2.99898C8.49336 2.89338 8.47288 2.78873 8.43267 2.69108C8.39245 2.59343 8.3333 2.50471 8.25863 2.43004C8.18395 2.35536 8.09523 2.29621 7.99758 2.256C7.89993 2.21578 7.79529 2.1953 7.68968 2.19573C7.58408 2.19616 7.4796 2.2175 7.38229 2.2585C7.28497 2.29951 7.19673 2.35938 7.12267 2.43466L2.12267 7.43466C2.12067 7.436 2.12 7.43866 2.118 7.44066C2.00832 7.55259 1.93393 7.69427 1.90407 7.84811C1.8742 8.00194 1.89017 8.16116 1.95 8.306C1.99 8.40133 2.04667 8.486 2.118 8.55933L2.12267 8.566L7.12267 13.566C7.27933 13.722 7.484 13.7993 7.688 13.7993C7.84618 13.7993 8.00081 13.7524 8.13234 13.6646C8.26387 13.5767 8.36641 13.4518 8.42698 13.3057C8.48755 13.1596 8.50345 12.9988 8.47266 12.8436C8.44187 12.6885 8.36578 12.5459 8.254 12.434L4.62067 8.8H13.978C14.1902 8.8 14.3937 8.71571 14.5437 8.56568C14.6937 8.41565 14.778 8.21217 14.778 8C14.778 7.78783 14.6937 7.58434 14.5437 7.43431C14.3937 7.28428 14.1902 7.2 13.978 7.2" fill="#363636"/>
</svg>
