<svg width="48" height="48" viewBox="0 0 48 48" fill="none" xmlns="http://www.w3.org/2000/svg">
<path d="M23.557 3C11.6669 3 2.02533 12.6398 2.02533 24.5317C2.02533 34.0449 8.19481 42.1159 16.75 44.963C17.8261 45.1623 18.2211 44.4959 18.2211 43.9272C18.2211 43.4138 18.2012 41.7176 18.1919 39.9184C12.2018 41.2209 10.9378 37.378 10.9378 37.378C9.95833 34.8892 8.54708 34.2275 8.54708 34.2275C6.59352 32.8911 8.69434 32.9186 8.69434 32.9186C10.8565 33.0704 11.995 35.1374 11.995 35.1374C13.9154 38.4291 17.032 37.4775 18.2607 36.9273C18.454 35.5357 19.012 34.5858 19.6278 34.0481C14.8453 33.5037 9.81785 31.6574 9.81785 23.4071C9.81785 21.0563 10.659 19.1356 12.0363 17.6277C11.8128 17.0854 11.0758 14.8954 12.2449 11.9296C12.2449 11.9296 14.053 11.3509 18.1677 14.1366C19.8852 13.6596 21.7271 13.4203 23.557 13.4121C25.3868 13.4203 27.2302 13.6596 28.951 14.1366C33.0606 11.3509 34.8662 11.9296 34.8662 11.9296C36.0382 14.8954 35.3009 17.0854 35.0773 17.6277C36.4579 19.1356 37.2933 21.0563 37.2933 23.4071C37.2933 31.677 32.2562 33.498 27.4616 34.031C28.2339 34.6992 28.9221 36.0095 28.9221 38.0184C28.9221 40.8993 28.8971 43.218 28.8971 43.9272C28.8971 44.5002 29.2847 45.1716 30.3761 44.9601C38.9267 42.1098 45.0883 34.0417 45.0883 24.5317C45.0883 12.6398 35.4481 3 23.557 3ZM10.0896 33.6723C10.0422 33.7793 9.87392 33.8114 9.7206 33.7379C9.56443 33.6677 9.47672 33.5218 9.52735 33.4145C9.5737 33.3043 9.74235 33.2737 9.89817 33.3475C10.0547 33.4177 10.1438 33.565 10.0896 33.6723ZM11.1488 34.6173C11.0461 34.7125 10.8453 34.6683 10.7091 34.5179C10.5683 34.3678 10.5419 34.167 10.646 34.0704C10.7519 33.9752 10.9466 34.0198 11.0878 34.1699C11.2286 34.3218 11.2561 34.5211 11.1488 34.6173ZM11.8754 35.8265C11.7434 35.9181 11.5277 35.8322 11.3944 35.6407C11.2624 35.4492 11.2624 35.2196 11.3972 35.1276C11.5309 35.0356 11.7434 35.1184 11.8786 35.3084C12.0101 35.5031 12.0101 35.7327 11.8754 35.8265ZM13.1042 37.2268C12.9862 37.357 12.7348 37.322 12.5508 37.1445C12.3625 36.9708 12.3101 36.7245 12.4285 36.5943C12.548 36.4638 12.8008 36.5005 12.9862 36.6767C13.173 36.85 13.23 37.0981 13.1042 37.2268ZM14.6923 37.6996C14.6403 37.8682 14.3982 37.9449 14.1543 37.8732C13.9108 37.7994 13.7514 37.6019 13.8006 37.4315C13.8512 37.2617 14.0944 37.1819 14.34 37.2585C14.5832 37.332 14.743 37.5281 14.6923 37.6996ZM16.4997 37.9001C16.5058 38.0777 16.299 38.2249 16.0429 38.2281C15.7855 38.2339 15.5773 38.0902 15.5744 37.9154C15.5744 37.7361 15.7766 37.5903 16.034 37.586C16.29 37.581 16.4997 37.7236 16.4997 37.9001ZM18.2752 37.8321C18.3059 38.0053 18.128 38.1833 17.8738 38.2307C17.6238 38.2763 17.3924 38.1694 17.3607 37.9975C17.3296 37.8199 17.5108 37.642 17.7604 37.596C18.0149 37.5518 18.2428 37.6559 18.2752 37.8321Z" fill="black"/>
</svg>
