<svg width="48" height="48" viewBox="0 0 48 48" fill="none" xmlns="http://www.w3.org/2000/svg">
<path d="M38.786 38.7868H32.5629V29.0409C32.5629 26.7169 32.5214 23.7251 29.3263 23.7251C26.0851 23.7251 25.5892 26.2573 25.5892 28.8717V38.7862H19.366V18.7446H25.3402V21.4835H25.4239C26.0217 20.4612 26.8857 19.6202 27.9237 19.0501C28.9617 18.48 30.1349 18.2021 31.3183 18.2461C37.6257 18.2461 38.7886 22.3949 38.7886 27.7923L38.786 38.7868ZM12.3443 16.005C11.6301 16.0051 10.9318 15.7935 10.3379 15.3967C9.74392 15 9.28098 14.4361 9.00752 13.7762C8.73407 13.1163 8.66241 12.3902 8.80163 11.6896C8.94084 10.9891 9.28469 10.3455 9.78965 9.84033C10.2946 9.33517 10.938 8.9911 11.6385 8.85162C12.339 8.71215 13.0652 8.78354 13.7251 9.05676C14.385 9.32998 14.9491 9.79277 15.3461 10.3866C15.743 10.9804 15.9549 11.6786 15.955 12.3929C15.9551 12.8672 15.8618 13.3368 15.6804 13.775C15.499 14.2132 15.2331 14.6114 14.8978 14.9468C14.5625 15.2822 14.1644 15.5483 13.7263 15.7299C13.2882 15.9114 12.8186 16.0049 12.3443 16.005ZM15.4559 38.7868H9.22632V18.7446H15.4559V38.7868ZM41.8885 3.00286H6.09923C5.28692 2.99369 4.50416 3.30741 3.92302 3.87507C3.34188 4.44274 3.00991 5.2179 3 6.03024V41.9691C3.00957 42.7819 3.34135 43.5576 3.92247 44.1258C4.50358 44.6941 5.28652 45.0084 6.09923 44.9998H41.8885C42.7028 45.01 43.4879 44.6965 44.0713 44.1283C44.6547 43.5601 44.9887 42.7835 45 41.9691V6.02764C44.9884 5.2137 44.6542 4.43765 44.0707 3.87C43.4873 3.30235 42.7024 2.98953 41.8885 3.00027" fill="black"/>
</svg>
